{"title":"The Final Destination 4 (2009) DVDRip XviD-MAX","uid":5184750,"size":839447575,"categoryP":"video","categoryS":"movies","magnet":"?xt=urn:btih:8ebcf4fd383d1d73116c9b2c4afe3420c60d0695&amp;dn=The+Final+Destination+4+%282009%29+DVDRip+XviD-MAX&amp;tr=udp%3A%2F%2Ftracker.openbittorrent.com%3A80&amp;tr=udp%3A%2F%2Fopen.demonii.com%3A1337&amp;tr=udp%3A%2F%2Ftracker.coppersurfer.tk%3A6969&amp;tr=udp%3A%2F%2Fexodus.desync.com%3A6969","seeders":6,"leechers":2,"uploader":"extremezone","files":-1,"time":1259416618,"description":"The Final Destination 4 (2009) DVDRip XviD-MAX\n\nFormat                           : AVI\nFormat/Info                      : Audio Video Interleave\nFile size                        : 800 MiB\nDuration                         : 1h 21mn\nOverall bit rate                 : 1 368 Kbps\nWriting application              : VirtualDubMod 1.5.10.2 (build 2542/release)\nWriting library                  : VirtualDubMod build 2542/release\nOriginal source form             : MAX TORRENTZ\nCopyright                        : SIGISMUNT\n\nVideo\nFormat                           : xvid\nCodec ID                         : xvid\nDuration                         : 1h 21mn\nBit rate                         : 1 291 Kbps\nWidth                            : 624 pixels\nHeight                           : 256 pixels\nDisplay aspect ratio             : 2.40:1\nFrame rate                       : 23.976 fps\nResolution                       : 24 bits\nBits/(Pixel*Frame)               : 0.337\nStream size                      : 755 MiB (94%)\n\nAudio\nID                               : 1\nFormat                           : MPEG Audio\nFormat version                   : Version 1\nFormat profile                   : Layer 3\nCodec ID                         : 55\nCodec ID/Hint                    : MP3\nDuration                         : 1h 21mn\nBit rate mode                    : Constant\nBit rate                         : 64.0 Kbps\nChannel(s)                       : 2 channels\nSampling rate                    : 48.0 KHz\nResolution                       : 16 bits\nStream size                      : 37.4 MiB (5%)\nAlignment                        : Aligned on interleaves\nInterleave, duration             : 24 ms (0.58 video frame)\nInterleave, preload duration     : 24 ms &lt;a href=&quot;\nhttp://www.imdb.com/title/tt1144884/&quot; rel=&quot;nofollow&quot; target=&quot;_NEW&quot;&gt;\nhttp://www.imdb.com/title/tt1144884/&lt;/a&gt;\n\nScreens: &lt;a href=&quot;\nhttp://www.postimg.com/image/9000/8375.jpg&quot; rel=&quot;nofollow&quot; target=&quot;_NEW&quot;&gt;\nhttp://www.postimg.com/image/9000/8375.jpg&lt;/a&gt; &lt;a href=&quot;\nhttp://www.postimg.com/image/9000/8376.jpg&quot; rel=&quot;nofollow&quot; target=&quot;_NEW&quot;&gt;\nhttp://www.postimg.com/image/9000/8376.jpg&lt;/a&gt; &lt;a href=&quot;\nhttp://www.postimg.com/image/9000/8377.jpg&quot; rel=&quot;nofollow&quot; target=&quot;_NEW&quot;&gt;\nhttp://www.postimg.com/image/9000/8377.jpg&lt;/a&gt; &lt;a href=&quot;\nhttp://www.postimg.com/image/9000/8378.jpg&quot; rel=&quot;nofollow&quot; target=&quot;_NEW&quot;&gt;\nhttp://www.postimg.com/image/9000/8378.jpg&lt;/a&gt;\n\nScreenCaps: &lt;a href=&quot;\nhttp://www.postimg.com/image/9000/8379.jpg&quot; rel=&quot;nofollow&quot; target=&quot;_NEW&quot;&gt;\nhttp://www.postimg.com/image/9000/8379.jpg&lt;/a&gt;\n\nThe Final Destination 4 (2009) DVDRip XviD-MAX Torrent Free Download &lt;a href=&quot;\nhttp://thepiratebay.se/user/extremezone/0/7&quot; rel=&quot;nofollow&quot; target=&quot;_NEW&quot;&gt;\nhttp://thepiratebay.se/user/extremezone/0/7&lt;/a&gt;","torrent":{"xt":"urn:btih:8ebcf4fd383d1d73116c9b2c4afe3420c60d0695","amp;dn":"The+Final+Destination+4+%282009%29+DVDRip+XviD-MAX","amp;tr":["udp%3A%2F%2Ftracker.openbittorrent.com%3A80","udp%3A%2F%2Fopen.demonii.com%3A1337","udp%3A%2F%2Ftracker.coppersurfer.tk%3A6969","udp%3A%2F%2Fexodus.desync.com%3A6969"],"infoHash":"8ebcf4fd383d1d73116c9b2c4afe3420c60d0695","infoHashBuffer":{"type":"Buffer","data":[142,188,244,253,56,61,29,115,17,108,155,44,74,254,52,32,198,13,6,149]},"announce":[],"urlList":[]}}